<svg width="573" height="54" viewBox="0 0 573 54" fill="none" xmlns="http://www.w3.org/2000/svg">
<path d="M12 42H18V30H42V24H18V18H42V12H12V42ZM54 0V54H0V0H54ZM118.8 0V54H64.8V0H118.8ZM106.8 42L94.8 12H88.8L76.8 42H83.6438L91.8 21L97.6125 36H91.8V42H106.8ZM171.6 12H141.6V30H165.6V36H141.6V42H171.6V24H147.6V18H171.6V12ZM183.6 0V54H129.6V0H183.6ZM206.4 18H218.4V42H224.4V18H236.4V12H206.4V18ZM248.4 0V54H194.4V0H248.4ZM313.2 0V54H259.2V0H313.2ZM301.2 42L289.2 12H283.2L271.2 42H278.044L286.2 21L292.013 36H286.2V42H301.2ZM336 42H342V30H366V24H342V18H366V12H336V42ZM378 0V54H324V0H378ZM418.8 42V36H412.8V42H418.8ZM442.8 0V54H388.8V0H442.8ZM495.6 12H465.6V30H489.6V36H465.6V42H495.6V24H471.6V18H495.6V12ZM507.6 0V54H453.6V0H507.6ZM530.4 12V42H536.4V30H554.4V42H560.4V12H554.4V24H536.4V12H530.4ZM572.4 0V54H518.4V0H572.4Z" fill="#ffffff"/>
</svg>
